<?xml version="1.0" standalone="no"?>
<!DOCTYPE svg PUBLIC "-//W3C//DTD SVG 20010904//EN"
 "http://www.w3.org/TR/2001/REC-SVG-20010904/DTD/svg10.dtd">
<svg version="1.0" xmlns="http://www.w3.org/2000/svg"
 width="900.000000pt" height="879.000000pt" viewBox="0 0 900.000000 879.000000"
 preserveAspectRatio="xMidYMid meet">
<metadata>
Created by potrace 1.10, written by Peter Selinger 2001-2011
</metadata>
<g transform="translate(0.000000,879.000000) scale(0.100000,-0.100000)"
fill="#ffffff" stroke="none">
<path d="M1805 8674 c-18 -3 -147 -14 -550 -45 -66 -5 -169 -13 -230 -18 -60
-6 -149 -10 -196 -10 -47 -1 -99 -5 -115 -11 -16 -5 -119 -14 -229 -19 -110
-6 -216 -15 -235 -21 -19 -5 -65 -10 -103 -10 l-67 0 2 -271 3 -271 40 -23
c22 -13 92 -50 155 -82 183 -95 388 -201 485 -252 50 -26 165 -86 257 -134 92
-47 175 -90 185 -96 10 -5 25 -12 33 -16 8 -3 69 -35 135 -70 66 -35 170 -90
230 -121 61 -31 148 -76 194 -100 47 -24 91 -44 98 -44 11 0 13 38 11 192 l-3
192 -125 63 c-69 35 -133 73 -142 84 -16 19 -18 50 -18 330 0 358 -12 325 121
334 46 3 103 8 127 11 l42 5 -2 202 -3 202 -40 1 c-22 1 -49 0 -60 -2z m-487
-461 c5 -10 9 -114 8 -232 -1 -185 -3 -215 -17 -224 -15 -9 -88 24 -439 202
-8 4 -31 16 -50 25 -40 20 -66 34 -130 66 -25 13 -54 28 -65 33 -11 6 -27 14
-35 18 -8 5 -39 20 -68 35 -30 14 -50 30 -45 34 8 8 202 23 507 40 93 6 171
12 174 15 3 3 38 5 78 5 60 0 75 -3 82 -17z"/>
<path d="M2150 8661 c-7 -14 -10 -1371 -10 -4309 0 -3738 2 -4291 15 -4302 8
-6 23 -9 35 -5 l20 6 0 4303 c0 3333 -3 4305 -12 4314 -18 18 -36 15 -48 -7z"/>
<path d="M2419 8664 c-9 -11 -10 -20 -2 -32 9 -15 40 -17 269 -20 1537 -16
2366 -33 2509 -53 44 -6 116 -14 160 -19 140 -14 267 -59 348 -122 113 -88
279 -267 422 -458 44 -58 82 -107 85 -110 3 -3 23 -29 44 -59 21 -30 43 -59
47 -65 35 -41 153 -207 277 -386 25 -36 68 -98 96 -138 28 -40 71 -105 96
-143 25 -38 70 -106 101 -151 31 -46 82 -123 113 -173 32 -49 71 -109 87 -133
16 -23 29 -45 29 -47 0 -3 20 -34 45 -71 25 -36 45 -67 45 -70 0 -3 8 -17 19
-32 10 -15 54 -81 97 -147 43 -66 81 -122 84 -125 4 -3 30 -36 59 -75 59 -79
263 -307 301 -337 14 -11 50 -43 80 -72 103 -98 185 -153 335 -229 115 -58
197 -161 238 -297 9 -30 23 -78 32 -107 8 -28 15 -65 15 -82 0 -16 5 -42 10
-56 13 -35 32 -269 37 -465 5 -198 9 -193 -124 -202 -351 -25 -335 -27 -346
37 -31 175 -124 316 -250 378 -75 36 -228 67 -337 67 -49 0 -94 2 -102 5 -10
4 -12 51 -10 238 4 254 -9 483 -34 604 -26 130 -63 266 -91 330 -7 17 -13 36
-13 43 0 11 -47 110 -71 150 -19 31 -29 62 -23 71 3 5 28 9 55 9 102 0 123 47
67 148 -27 50 -136 231 -178 297 -24 38 -130 208 -143 230 -7 11 -24 36 -39
56 -16 20 -28 40 -28 44 0 4 -13 24 -30 45 -16 21 -30 41 -30 45 0 4 -13 24
-30 45 -16 21 -30 41 -30 45 0 4 -13 24 -29 44 -15 20 -50 68 -76 106 -27 39
-71 103 -99 143 -28 41 -55 81 -61 90 -19 30 -399 537 -410 547 -7 6 -34 39
-61 75 -60 82 -271 295 -304 309 -14 6 -38 19 -55 29 -48 30 -123 52 -225 68
-136 21 -820 42 -1585 49 -604 6 -747 8 -1198 22 -123 3 -172 1 -182 -7 -22
-18 -18 -39 8 -44 12 -3 351 -9 752 -15 745 -11 1374 -25 1865 -41 353 -11
461 -29 558 -92 24 -15 47 -28 53 -28 5 0 45 -35 88 -77 73 -73 119 -127 251
-296 30 -38 69 -87 85 -108 82 -105 369 -496 443 -606 18 -26 53 -77 78 -113
57 -83 206 -306 219 -329 16 -27 95 -152 126 -199 16 -23 29 -45 29 -47 0 -3
20 -34 45 -71 25 -36 45 -68 45 -72 0 -4 20 -38 45 -75 25 -38 45 -75 45 -82
0 -7 7 -18 15 -25 41 -34 0 -64 -66 -48 -50 12 -69 24 -69 43 0 7 -20 44 -45
82 -25 37 -45 71 -45 75 0 4 -20 37 -45 74 -25 36 -45 67 -45 70 0 3 -8 17
-19 32 -10 15 -39 59 -63 97 -67 105 -170 261 -227 343 -28 41 -51 75 -51 78
0 3 -63 92 -106 149 -8 11 -37 52 -64 90 -27 39 -55 78 -62 87 -7 10 -23 33
-36 50 -47 67 -246 333 -252 338 -4 3 -31 37 -61 75 -62 83 -221 268 -264 308
-208 197 -282 208 -1515 222 -151 2 -448 8 -660 14 -212 6 -538 10 -725 8
l-340 -2 -3 -1030 c-1 -566 0 -1040 3 -1052 l5 -22 453 -6 c996 -12 1197 -19
1223 -47 13 -14 5 -369 -15 -668 -6 -85 -16 -247 -22 -360 -6 -113 -14 -259
-17 -325 l-7 -120 -806 4 c-527 2 -809 0 -813 -7 -3 -5 0 -14 7 -20 7 -6 281
-12 727 -16 393 -4 753 -11 800 -14 l85 -7 -2 -50 c0 -27 -4 -75 -8 -105 -6
-45 -4 -58 8 -69 22 -17 34 -8 40 31 3 18 11 63 17 101 15 76 15 76 115 56 54
-12 572 -26 967 -28 l247 0 69 -69 c58 -58 78 -71 123 -82 43 -11 204 -14 814
-15 863 0 794 -7 862 86 l38 51 95 -6 c143 -9 230 -21 276 -38 117 -45 179
-96 223 -185 12 -26 27 -56 32 -65 18 -34 39 -162 29 -172 -6 -6 -54 -11 -108
-13 -53 -1 -114 -5 -135 -9 -20 -3 -167 -10 -325 -16 -158 -5 -316 -12 -352
-15 -36 -3 -261 -9 -500 -14 -239 -5 -457 -13 -485 -19 -27 -5 -257 -12 -510
-15 -253 -3 -658 -9 -900 -14 -242 -6 -846 -13 -1342 -17 l-903 -7 0 -25 0
-25 763 7 c626 6 765 5 774 -6 7 -8 13 -89 15 -203 4 -173 6 -193 26 -225 12
-20 34 -45 49 -56 66 -49 28 -49 1590 -31 1374 16 2250 32 2318 43 17 2 87 10
157 18 70 8 131 17 137 20 5 3 32 11 61 16 59 11 178 56 201 77 25 21 45 -5
55 -69 11 -68 8 -405 -6 -668 -6 -113 -15 -338 -20 -500 -5 -162 -14 -331 -19
-375 -5 -44 -10 -149 -10 -233 -1 -150 -1 -153 -26 -176 -26 -24 -95 -53 -150
-63 -16 -3 -34 -9 -40 -13 -10 -6 -130 -35 -260 -60 -312 -61 -1131 -97 -2470
-106 -473 -4 -760 -9 -777 -16 -17 -6 -384 -14 -995 -20 -1286 -12 -1364 -14
-1374 -30 -5 -7 -5 -16 0 -21 4 -4 180 -5 392 -3 1329 16 2155 27 2579 36 267
6 719 15 1005 19 572 10 998 25 1175 42 63 6 158 15 210 19 158 14 348 46 455
75 141 39 174 50 218 71 46 22 48 22 70 4 22 -18 22 -21 19 -237 -3 -163 -7
-223 -17 -239 -13 -20 -89 -64 -110 -64 -5 0 -16 -6 -24 -14 -30 -25 -166 -73
-256 -89 -99 -18 -265 -35 -480 -47 -77 -5 -212 -13 -300 -19 -88 -6 -266 -15
-395 -21 -129 -5 -252 -12 -273 -15 -21 -3 -160 -5 -309 -5 -167 0 -288 -5
-313 -11 -25 -7 -252 -14 -620 -19 -1171 -15 -1605 -20 -2310 -27 -630 -7
-720 -10 -720 -23 0 -13 156 -15 1360 -11 748 2 1367 7 1375 11 8 4 389 10
845 14 660 5 834 4 847 -6 9 -7 19 -33 21 -58 9 -78 28 -165 38 -174 5 -6 9
-19 9 -31 0 -11 9 -38 20 -60 11 -22 20 -50 20 -63 0 -38 58 -133 123 -199
l61 -63 116 1 c63 0 180 4 260 10 80 5 192 9 250 9 158 -1 710 29 729 40 32
16 72 119 120 305 5 22 15 79 21 128 6 48 15 99 20 113 6 14 10 51 10 82 0 31
5 84 10 118 21 129 38 397 51 812 11 364 3 881 -21 1202 -5 69 -11 159 -14
200 -3 41 -10 99 -16 129 -5 29 -10 77 -10 105 0 28 -7 83 -15 121 -8 39 -15
88 -15 109 0 22 -7 64 -16 95 -9 31 -21 73 -26 93 -9 31 -7 44 13 85 52 106
51 245 -1 313 -26 34 -27 40 -34 210 -9 240 -32 514 -45 538 -6 12 -11 33 -11
47 0 28 -19 103 -50 197 -56 165 -158 275 -320 343 -21 8 -45 23 -128 78 -73
49 -315 275 -374 349 -45 57 -32 66 122 78 149 11 332 35 380 50 19 5 50 10
70 10 19 0 52 6 75 14 22 7 67 21 100 30 101 29 177 67 227 114 56 53 70 109
70 279 0 180 -23 280 -80 349 -28 36 -103 78 -162 92 -86 21 -498 35 -747 25
-211 -8 -220 -10 -273 -37 -60 -30 -97 -60 -112 -91 -5 -11 -20 -40 -33 -65
-13 -25 -24 -60 -24 -78 -1 -42 -28 -89 -55 -96 -19 -5 -66 27 -66 45 0 9
-210 328 -343 522 -26 38 -47 70 -47 73 0 3 -15 25 -32 49 -44 58 -81 109
-193 270 -30 44 -76 107 -100 140 -25 33 -67 92 -95 130 -27 39 -70 95 -95
125 -25 30 -48 62 -52 70 -4 8 -12 20 -18 25 -7 6 -34 39 -61 75 -63 84 -274
301 -344 354 -177 134 -318 159 -1070 185 -445 16 -1321 31 -1811 31 -386 0
-438 -2 -450 -16z m5911 -1784 c119 -22 140 -28 181 -58 79 -58 96 -109 106
-312 7 -168 -17 -252 -82 -281 -11 -5 -27 -13 -35 -17 -70 -40 -130 -58 -300
-92 -30 -6 -77 -16 -104 -22 l-49 -11 -38 42 c-21 22 -49 42 -61 43 -13 1 -54
2 -92 3 -79 2 -96 15 -118 88 -35 117 -254 344 -348 362 -20 3 -46 15 -60 25
-25 19 -25 20 -7 50 9 18 17 37 17 44 0 7 23 36 50 63 79 79 91 81 520 82 201
1 390 -4 420 -9z m-909 -322 c158 -113 265 -243 285 -347 11 -53 39 -68 135
-74 90 -5 129 -18 129 -42 0 -14 -11 -19 -36 -16 -7 1 -38 -5 -70 -14 -32 -8
-99 -15 -149 -15 -59 -1 -99 -6 -115 -15 -14 -8 -32 -14 -41 -15 -14 0 -189
218 -189 234 0 3 -13 24 -29 48 -82 125 -121 188 -121 199 0 6 19 29 43 50 55
50 96 52 158 7z m-2186 -387 c314 -5 723 -14 910 -20 187 -6 457 -13 600 -16
227 -5 262 -8 277 -23 27 -28 103 -181 137 -277 17 -49 36 -103 42 -120 11
-29 15 -48 38 -170 7 -33 16 -80 21 -105 5 -25 12 -87 16 -137 5 -74 3 -94 -7
-98 -8 -3 -113 0 -234 5 -121 6 -243 10 -272 10 -29 -1 -69 4 -90 9 -23 6
-270 11 -628 12 -589 2 -590 2 -633 -20 -67 -34 -78 -66 -59 -177 9 -49 20
-107 26 -129 27 -104 42 -195 35 -206 -5 -9 -110 -11 -474 -5 -480 7 -761 24
-799 48 -20 12 -21 18 -15 78 3 36 10 83 16 105 5 22 14 74 19 115 5 41 14 88
19 104 6 16 10 46 10 67 0 21 5 50 10 64 6 15 15 61 20 103 17 126 37 254 48
307 6 28 16 84 23 125 6 41 18 113 26 160 8 47 17 109 20 138 4 42 9 55 26 62
12 5 85 7 162 5 77 -2 397 -8 710 -14z m1177 -982 c9 -5 117 -9 240 -9 201 -1
311 -6 548 -28 l75 -7 3 -235 c3 -256 -3 -288 -56 -337 l-25 -23 -789 0 c-709
0 -792 2 -821 16 -54 28 -81 64 -114 149 -14 39 -19 59 -43 190 -6 33 -18 83
-26 111 -36 130 -13 167 116 183 78 9 871 0 892 -10z m2133 -1083 c27 -23 28
-29 28 -105 -2 -114 -19 -134 -153 -180 -70 -24 -184 -51 -216 -51 -18 0 -55
-5 -83 -12 -78 -18 -81 -12 -81 151 0 93 4 141 12 149 7 7 33 12 59 12 26 0
59 4 73 10 14 5 78 12 143 16 65 4 132 13 148 20 40 17 38 18 70 -10z m-560
-200 l0 -150 -30 -8 c-16 -5 -187 -10 -380 -11 l-350 -2 0 150 0 150 304 7
c167 4 309 9 315 12 6 3 40 4 76 3 l65 -2 0 -149z m-2175 109 c0 -8 -4 -17
-10 -20 -5 -3 -395 -10 -865 -16 -471 -5 -861 -10 -867 -12 -6 -1 -13 4 -16
12 -4 11 2 13 26 8 17 -4 34 -3 37 2 2 5 19 11 37 15 18 3 377 7 798 8 550 2
775 6 800 14 38 13 60 9 60 -11z m1354 -7 c11 -45 7 -253 -7 -272 -11 -16 -57
-17 -632 -19 l-620 -2 -3 143 c-2 108 0 144 10 147 11 4 613 17 1124 23 118 2
122 1 128 -20z m-1344 -72 c0 -8 -6 -16 -14 -19 -17 -7 -280 -14 -1006 -27
-289 -5 -581 -11 -650 -12 -123 -3 -125 -3 -128 20 l-3 22 188 1 c103 0 269 3
368 7 192 7 671 16 1028 20 180 2 217 0 217 -12z m-5 -85 c3 -5 0 -13 -7 -17
-25 -16 -1765 -46 -1785 -31 -7 5 -11 13 -8 17 2 4 186 10 408 14 222 4 417
11 433 16 40 12 951 13 959 1z m-6 -85 c7 -8 8 -17 3 -20 -13 -8 -203 -14
-862 -27 -695 -13 -905 -11 -905 11 0 16 8 16 1130 38 665 13 621 14 634 -2z
m2701 -17 c20 -37 4 -62 -59 -92 -60 -29 -88 -38 -171 -56 -162 -35 -155 -34
-465 -55 -44 -3 -442 -10 -885 -15 -443 -5 -1088 -15 -1435 -21 -346 -6 -797
-10 -1000 -10 l-370 0 -37 25 c-53 36 -89 115 -53 115 9 0 35 -10 58 -22 l42
-23 475 3 c261 1 725 7 1030 12 305 5 850 15 1210 21 360 6 765 15 900 20 250
8 486 29 511 45 8 4 34 11 59 15 66 11 138 33 152 47 17 17 26 15 38 -9z
m-2703 -63 c3 -3 3 -12 0 -21 -6 -13 -96 -15 -821 -15 -448 0 -817 4 -820 8
-6 10 632 22 1148 22 188 0 346 4 353 8 12 8 132 7 140 -2z"/>
<path d="M154 7135 c-18 -14 -41 -43 -53 -65 -21 -40 -21 -49 -21 -679 0 -545
2 -640 14 -651 8 -6 39 -15 68 -20 29 -5 73 -13 98 -19 123 -31 140 -33 155
-21 12 10 15 90 17 511 2 377 6 501 15 510 15 15 113 14 163 -2 19 -5 58 -14
85 -19 116 -21 162 -34 193 -57 l32 -24 -2 -312 c-3 -272 -5 -311 -18 -308 -8
2 -35 7 -60 11 -25 4 -65 12 -90 18 -115 28 -161 35 -171 25 -6 -6 -8 -85 -7
-203 l3 -194 55 -13 c30 -8 79 -18 108 -23 29 -5 76 -14 105 -20 89 -21 169
-38 252 -55 44 -9 98 -21 120 -26 22 -6 54 -13 70 -15 39 -6 160 -33 210 -47
22 -5 60 -14 85 -18 159 -26 188 -32 218 -45 18 -8 51 -14 72 -14 l40 0 0 194
c0 218 2 211 -77 226 -26 4 -91 18 -143 30 -52 12 -122 26 -155 31 -33 5 -73
14 -90 19 -16 5 -66 16 -110 25 -44 9 -87 20 -95 24 -13 7 -15 54 -18 313 -2
296 -2 306 19 331 22 29 36 32 83 18 29 -9 82 -20 196 -42 174 -33 208 -40
230 -49 14 -5 54 -10 90 -12 l65 -3 3 198 c2 183 1 197 -15 197 -10 0 -36 7
-58 15 -22 8 -58 14 -80 15 -22 0 -51 7 -65 15 -14 8 -43 15 -65 15 -22 1 -58
7 -80 15 -22 8 -54 15 -72 15 -17 0 -44 5 -60 12 -28 11 -99 25 -184 34 -74 9
-138 -37 -158 -114 -10 -37 -22 -32 -48 19 -30 60 -89 118 -143 141 -44 19
-131 42 -220 57 -58 11 -140 29 -212 47 -32 8 -104 14 -160 14 -94 0 -106 -2
-134 -25z"/>
<path d="M224 5420 c-54 -8 -98 -41 -123 -93 -21 -43 -21 -52 -19 -678 l3
-634 25 -3 c14 -1 50 -9 80 -16 115 -30 156 -38 195 -40 l40 -1 5 505 c3 278
9 511 13 518 14 21 92 13 262 -28 28 -6 70 -16 95 -22 25 -6 63 -14 85 -17 22
-4 52 -15 67 -25 35 -23 40 -72 36 -386 l-3 -245 -55 1 c-30 1 -95 12 -145 24
-170 40 -215 44 -215 19 0 -5 0 -88 0 -184 0 -96 0 -179 0 -183 0 -14 50 -33
105 -42 109 -18 182 -32 230 -45 28 -7 86 -21 130 -29 154 -31 230 -47 260
-56 17 -5 48 -12 70 -15 44 -7 158 -31 220 -46 22 -6 63 -14 90 -19 28 -4 68
-13 90 -18 22 -6 63 -12 90 -14 l50 -3 3 196 2 196 -42 13 c-42 13 -62 17
-198 41 -36 6 -83 17 -105 25 -23 8 -50 14 -60 14 -47 0 -161 34 -177 52 -17
19 -18 54 -18 439 l0 418 -25 54 c-54 112 -162 174 -362 207 -28 4 -57 11 -63
15 -11 7 -29 10 -180 35 -36 6 -78 16 -95 22 -16 5 -52 14 -80 18 -27 4 -70
13 -95 18 -63 15 -138 20 -186 12z"/>
<path d="M82 3518 l3 -193 65 -17 c36 -9 76 -17 90 -18 13 0 42 -6 65 -14 37
-13 67 -19 222 -45 28 -5 57 -12 63 -16 6 -4 35 -11 63 -16 155 -26 185 -32
222 -45 23 -8 51 -14 65 -14 13 0 49 -6 79 -14 31 -8 90 -21 131 -29 41 -9
111 -23 155 -32 44 -9 109 -25 145 -36 103 -30 100 -19 100 -386 0 -363 4
-348 -97 -340 -32 2 -76 9 -98 15 -22 6 -76 18 -120 27 -44 9 -100 22 -125 27
-25 6 -65 15 -90 19 -25 5 -76 15 -115 23 -38 8 -97 20 -130 26 -33 6 -80 18
-105 26 -25 8 -56 14 -69 14 -23 0 -133 22 -206 42 -22 6 -60 15 -85 19 -25 5
-79 15 -120 23 -122 25 -110 45 -110 -184 l0 -199 52 -16 c28 -8 60 -15 70
-15 11 0 49 -7 86 -15 120 -28 196 -44 227 -49 17 -2 50 -9 75 -15 25 -6 79
-18 120 -27 41 -8 100 -21 130 -29 51 -13 103 -23 225 -45 28 -5 91 -18 140
-30 50 -11 108 -23 130 -26 22 -3 60 -12 85 -19 79 -24 172 -38 271 -42 96 -4
96 -4 139 29 81 62 79 47 80 673 0 645 2 630 -91 726 -30 31 -73 65 -95 74
-51 22 -168 55 -195 55 -12 0 -42 6 -68 14 -25 8 -73 20 -106 26 -33 7 -91 18
-130 26 -38 8 -94 19 -124 25 -30 5 -58 12 -63 15 -5 3 -33 10 -61 15 -63 10
-176 33 -237 47 -25 6 -81 18 -125 27 -105 22 -195 41 -276 60 -36 8 -77 15
-91 15 -14 0 -42 7 -61 15 -20 8 -52 15 -72 15 l-35 0 2 -192z"/>
<path d="M2422 3228 c-8 -8 -9 -15 -1 -25 9 -10 133 -13 654 -13 532 0 645 -2
654 -14 8 -9 11 -100 9 -312 l-3 -299 -649 -3 c-650 -2 -684 -4 -673 -36 3 -8
176 -12 588 -16 l584 -5 3 -110 c2 -60 0 -119 -2 -131 -6 -21 -9 -21 -583 -28
-441 -5 -579 -9 -585 -19 -5 -6 -7 -23 -6 -37 l3 -25 585 -5 585 -5 3 -96 c2
-78 0 -100 -13 -113 -14 -14 -48 -16 -228 -17 -117 -1 -374 -4 -572 -8 l-360
-6 -3 -25 c-5 -51 -8 -51 319 -49 167 2 422 4 565 6 310 5 294 10 294 -101 0
-49 -4 -77 -13 -85 -10 -8 -183 -12 -583 -13 -561 -3 -569 -3 -569 -23 0 -20
6 -20 670 -18 1006 3 2254 19 2390 32 66 6 143 15 170 21 28 6 68 15 90 19 94
19 172 77 210 156 24 51 28 55 61 55 45 0 104 25 104 44 0 35 -12 46 -54 46
-61 0 -73 11 -58 53 7 18 12 59 12 90 0 71 21 97 79 97 40 0 71 20 71 45 0 24
-47 48 -79 42 -38 -8 -51 8 -51 62 0 26 -7 68 -15 95 -21 68 -19 76 13 76 43
-1 121 -25 139 -42 42 -42 61 -169 44 -288 -6 -41 -15 -118 -20 -171 -5 -53
-14 -114 -19 -135 -6 -21 -13 -60 -17 -86 -3 -26 -10 -50 -16 -53 -5 -4 -9
-14 -9 -24 0 -10 -13 -37 -30 -59 -77 -107 -257 -146 -710 -157 -129 -3 -332
-8 -450 -12 -118 -3 -735 -9 -1370 -12 l-1155 -6 0 -25 0 -25 375 2 c206 1
848 6 1425 12 1244 13 1509 22 1661 60 138 35 191 60 245 118 53 56 74 116 99
273 5 30 13 82 19 115 6 33 11 143 11 243 0 157 -3 188 -17 215 -26 45 -45 61
-92 80 -39 16 -132 17 -1192 17 -632 -1 -1154 2 -1159 5 -6 4 -10 120 -10 298
0 269 -2 294 -19 323 -14 23 -29 33 -57 37 -22 4 -318 7 -659 7 -463 0 -624
-3 -633 -12z m3474 -710 c70 -19 96 -63 92 -154 l-3 -69 -160 -8 c-88 -5 -351
-10 -585 -10 l-425 -2 -3 109 c-2 69 1 113 8 122 16 18 62 20 577 22 335 2
465 -1 499 -10z m-1165 -8 c17 -10 19 -22 19 -125 0 -111 -1 -115 -22 -120
-13 -2 -133 -6 -268 -8 -135 -2 -372 -5 -528 -8 -330 -5 -294 -23 -290 146 l3
110 115 6 c221 10 950 9 971 -1z m1250 -327 c1 -10 0 -22 -1 -28 -1 -5 -8 -48
-14 -95 l-12 -85 -319 -12 c-176 -7 -432 -12 -570 -10 l-250 2 0 110 0 110
385 7 c212 4 410 9 440 11 30 2 119 4 198 5 129 2 142 0 143 -15z m-1250 -13
c17 -10 19 -22 19 -115 0 -100 -1 -105 -22 -110 -13 -3 -257 -9 -543 -13 -459
-7 -522 -6 -533 8 -9 10 -12 43 -10 110 l3 95 55 7 c30 3 156 7 280 8 124 1
236 6 250 10 38 12 478 12 501 0z m1194 -301 c4 -5 0 -18 -9 -28 -9 -10 -16
-22 -16 -28 0 -5 -10 -18 -22 -29 -100 -85 -248 -109 -730 -120 -243 -6 -310
-4 -323 6 -11 9 -15 32 -15 91 0 114 -12 110 351 109 160 -1 294 1 297 4 11
11 461 6 467 -5z m-1175 -108 c0 -83 -1 -89 -22 -96 -36 -12 -1061 -23 -1075
-12 -8 6 -13 36 -13 81 0 42 5 79 13 89 16 22 42 23 615 25 l482 2 0 -89z"/>
<path d="M8285 2589 c-16 -6 -210 -14 -430 -20 -220 -5 -429 -13 -465 -19 -36
-5 -186 -12 -333 -14 -148 -3 -274 -9 -280 -14 -7 -6 -76 -12 -155 -15 -273
-9 -153 -17 254 -17 597 0 1373 34 1486 65 88 24 106 -16 72 -160 -9 -38 -23
-87 -32 -107 -16 -40 -9 -86 8 -58 6 8 10 25 10 36 0 12 7 27 15 34 8 7 15 23
15 35 0 12 7 39 15 58 22 53 20 169 -3 190 -21 19 -126 22 -177 6z"/>
<path d="M6516 2392 c-76 -6 -154 -80 -170 -162 -17 -88 -37 -365 -33 -462 3
-102 5 -110 33 -145 18 -22 44 -41 63 -46 18 -4 202 -7 410 -5 369 3 377 4
424 26 59 29 118 87 139 139 34 82 53 239 52 418 0 92 -3 115 -20 140 -59 90
-52 89 -484 95 -206 3 -392 4 -414 2z m773 -146 c18 -17 21 -30 21 -107 0 -48
-7 -143 -16 -211 -18 -140 -35 -178 -95 -208 -37 -19 -57 -20 -396 -18 l-358
3 -3 125 c-1 68 4 185 13 260 14 123 17 137 41 158 l26 23 373 -3 c350 -3 374
-4 394 -22z"/>
<path d="M86 1873 c-3 -3 -6 -292 -6 -642 1 -543 3 -639 15 -655 8 -11 15 -27
15 -35 0 -24 69 -95 120 -124 52 -29 138 -59 225 -76 33 -7 92 -19 130 -27 39
-8 90 -19 115 -24 25 -5 79 -16 120 -25 102 -22 196 -16 239 16 18 13 41 43
52 68 18 41 19 69 19 457 0 459 -2 444 67 444 20 0 59 -6 87 -14 50 -14 131
-32 193 -43 17 -3 41 -15 52 -27 20 -22 21 -32 23 -536 l3 -513 60 -18 c102
-29 274 -61 287 -53 4 3 8 283 8 623 0 654 0 657 -47 746 -48 91 -195 159
-428 196 -61 10 -143 27 -210 44 -71 19 -175 35 -223 35 -74 0 -123 -33 -154
-103 -16 -35 -18 -80 -18 -452 0 -383 -1 -414 -18 -435 -17 -21 -21 -22 -68
-11 -27 7 -71 16 -99 21 -27 4 -63 13 -78 19 -16 6 -40 11 -55 11 -30 1 -63
24 -81 57 -8 16 -11 159 -11 497 0 284 -4 485 -10 500 -8 22 -16 26 -50 26
-22 0 -57 7 -77 15 -19 8 -48 15 -64 15 -15 0 -38 4 -51 9 -41 15 -75 21 -82
14z"/>
<path d="M4990 1207 c-17 -8 -156 -14 -452 -17 -414 -5 -427 -6 -455 -26 -15
-12 -29 -33 -31 -47 -6 -51 60 -142 128 -176 88 -44 134 -46 1090 -43 625 2
913 6 930 13 50 22 56 27 88 68 23 31 32 53 32 81 0 52 -34 114 -75 140 -32
20 -45 20 -631 19 -435 0 -606 -4 -624 -12z m-113 -68 c7 -7 9 -31 6 -64 -4
-40 -1 -60 13 -83 10 -17 15 -34 12 -38 -8 -8 -570 -5 -623 3 -70 11 -122 39
-155 84 -16 23 -30 53 -30 66 0 23 1 23 113 23 61 0 119 5 127 10 22 14 523
13 537 -1z"/>
</g>
</svg>
